# xmcd CD database file generated by freedbAccess_ocx
#
# Track frame offsets:
#       150
#       19294
#       34872
#       49151
#       73050
#       91428
#       112031
#       129601
#       157340
#       175657
#
# Disc length: 2535 seconds
#
# Revision: 0
# Processed by: cddbd v1.4PL0 Copyright (c) Steve Scherf et al.
# Submitted via: CDnGo 2.00
#
DISCID=8f09e50a
DTITLE=Son Seals - Bad Axe
DYEAR=1984
DGENRE=Blues
TTITLE0=Don't Pick Me For Your Fool
TTITLE1=Going Home
TTITLE2=Juast About To Lose Your Clown
TTITLE3=Friday Again
TTITLE4=Cold Blood
TTITLE5=Out Of My Way
TTITLE6=I Think Your Fooling Me
TTITLE7=I Can Count On My Blues
TTITLE8=Can't Stand To See Her Cry
TTITLE9=Person To Person
EXTD=
EXTT0=
EXTT1=
EXTT2=
EXTT3=
EXTT4=
EXTT5=
EXTT6=
EXTT7=
EXTT8=
EXTT9=
PLAYORDER=
